<svg width="46" height="63" viewBox="0 0 46 63" fill="none" xmlns="http://www.w3.org/2000/svg">
<path opacity="0.5" d="M43.1584 0.414428C42.0005 1.07686 16.9988 19.3873 5.82026 27.7658C4.3258 28.8876 3.96656 29.4648 4.16527 30.4494C4.38444 31.5307 4.32042 31.5087 10.8069 33.8256C14.1033 35.0114 16.8286 36.0369 16.8706 36.1233C16.9181 36.1933 16.455 36.9687 15.8679 37.8449C15.2863 38.7052 11.6065 44.1072 7.70389 49.8456C3.80121 55.5842 0.538743 60.5004 0.450456 60.7575C0.157964 61.6094 0.86554 62.571 1.85512 62.6591C2.18679 62.6832 5.81753 59.9773 18.5463 50.2627C27.4927 43.4352 36.1691 36.8206 37.8147 35.5712C42.2711 32.2325 42.5238 32.6427 34.1074 29.5372C30.5442 28.2421 27.627 27.1505 27.606 27.1075C27.5745 27.0427 32.7404 19.7617 40.2079 9.37236C42.918 5.59587 45.222 2.27278 45.3158 1.99956C45.553 1.30851 45.1276 0.515676 44.3754 0.257406C43.9111 0.0979797 43.6486 0.133598 43.1584 0.414428ZM35.2847 10.7362C35.0634 10.9117 24.075 26.8652 23.9867 27.1223C23.8267 27.5883 24.0585 28.4765 24.4504 28.8985C24.7523 29.2176 25.456 29.5132 27.7608 30.3045C29.3772 30.8596 31.9053 31.7816 33.4038 32.3678L36.1075 33.4039L33.0211 35.7757C31.3213 37.0785 27.1282 40.3279 23.7172 43.0192C15.044 49.8326 6.81461 56.1875 6.77263 56.1013C6.7307 56.015 11.1184 49.958 17.1993 41.6796C19.4739 38.5981 21.4027 35.8467 21.5075 35.5413C21.6129 35.1823 21.5792 34.8116 21.4064 34.4288L21.1338 33.868L17.2887 32.4041C15.1821 31.609 12.628 30.6061 11.6097 30.1847L9.77571 29.4293L14.3016 26.0965C16.8098 24.2629 21.8484 20.5313 25.5006 17.8148C34.8768 10.8297 35.2113 10.5852 35.3072 10.6181C35.3553 10.6346 35.3388 10.6829 35.2847 10.7362Z" fill="#CCCCCD"/>
</svg>
