<svg width="40" height="40" viewBox="0 0 40 40" fill="none" xmlns="http://www.w3.org/2000/svg">
<path d="M24.4304 22.7077C22.9042 22.7077 21.3781 24.9231 20.6888 26.0554C20.1965 26.3015 18.375 25.9077 16.2581 23.7908C14.1411 21.6738 13.7473 19.8031 13.9934 19.36C15.1258 18.6708 17.3411 17.0954 17.3411 15.6185C17.2919 12.32 11.7781 6.80615 8.4796 6.80615C5.47652 6.80615 -0.677324 15.1262 12.1227 27.9262C24.8242 40.6277 33.2427 34.5231 33.2427 31.52C33.2427 28.2215 27.7288 22.7077 24.4304 22.7077ZM13.5011 26.5477C8.57806 21.6246 2.76883 12.4677 8.62729 8.77538C10.8919 8.92308 15.3227 13.4031 15.3227 15.5692C15.175 16.2585 12.9104 17.6862 12.615 17.9323C10.9411 19.6062 12.4673 22.8554 14.8304 25.2185C17.1934 27.5815 20.4427 29.1077 22.1165 27.4338L22.215 27.3354L22.2642 27.2369C23.0027 26.0062 24.0365 24.8246 24.4304 24.7262C26.6458 24.7754 31.0765 29.2062 31.2242 31.4708C27.5811 37.28 18.4242 31.4215 13.5011 26.5477Z" fill="#0E0E11"/>
<path d="M32.5535 4.3446H22.3627C20.6396 4.3446 19.2119 5.7723 19.2119 7.49537V14.5846C19.2119 16.3077 20.5904 17.6861 22.2642 17.7354V20.3938C22.2642 21.1815 23.1504 21.6246 23.7904 21.2308L29.1073 17.7846H32.5535C34.2765 17.7846 35.7042 16.3569 35.7042 14.6338V7.49537C35.655 5.7723 34.2765 4.3446 32.5535 4.3446ZM33.6858 14.5354C33.6858 15.1754 33.1442 15.7169 32.5042 15.7169H28.8119C28.615 15.7169 28.4181 15.7661 28.2704 15.8646L24.2335 18.4738V16.6523C24.2335 16.1108 23.7904 15.6677 23.2488 15.6677H22.3627C21.7227 15.6677 21.1811 15.1261 21.1811 14.4861V7.49537C21.1811 6.85537 21.7227 6.31384 22.3627 6.31384H32.5535C33.1935 6.31384 33.735 6.85537 33.735 7.49537V14.5354H33.6858Z" fill="#0E0E11"/>
<path d="M24.0859 10.0061H23.6428C23.1013 10.0061 22.6582 10.4492 22.6582 10.9907C22.6582 11.5323 23.1013 11.9753 23.6428 11.9753H24.0859C24.6274 11.9753 25.0705 11.5323 25.0705 10.9907C25.0705 10.4492 24.6274 10.0061 24.0859 10.0061Z" fill="#0E0E11"/>
<path d="M27.6796 10.0061H27.2366C26.695 10.0061 26.252 10.4492 26.252 10.9907C26.252 11.5323 26.695 11.9753 27.2366 11.9753H27.6796C28.2212 11.9753 28.6643 11.5323 28.6643 10.9907C28.6643 10.4492 28.2212 10.0061 27.6796 10.0061Z" fill="#0E0E11"/>
<path d="M31.3222 10.0061H30.8791C30.3376 10.0061 29.8945 10.4492 29.8945 10.9907C29.8945 11.5323 30.3376 11.9753 30.8791 11.9753H31.3222C31.8638 11.9753 32.3068 11.5323 32.3068 10.9907C32.3068 10.4492 31.8638 10.0061 31.3222 10.0061Z" fill="#0E0E11"/>
</svg>
