<svg width="120" height="30" viewBox="0 0 120 30" fill="none" xmlns="http://www.w3.org/2000/svg">
<path d="M0 15V30L12.1205 29.9269C23.5904 29.8295 24.3133 29.8052 26.0723 29.3182C30.4819 28.0763 32.6747 25.9334 33.2771 22.3052C33.5181 20.8442 33.5181 20.4058 33.1807 19.237C32.6747 17.5081 31.494 15.9497 29.8313 14.8782L28.5301 14.026L29.1325 12.8084C30 11.1526 30.0241 8.01136 29.2048 6.33117C28.4096 4.69968 26.4578 2.84903 24.4819 1.875C21.1325 0.219156 20.9398 0.194805 9.95181 0.0974026L0 0V15ZM18.241 7.08604C21.0361 7.32955 22.1928 7.74351 22.7952 8.66883C23.4458 9.66721 22.8916 10.4951 21.2048 11.0795C20.0723 11.4692 18.9398 11.5666 13.4458 11.664L6.98795 11.7614V9.30195V6.84253H11.3976C13.8072 6.86688 16.8916 6.96429 18.241 7.08604ZM24.3855 19.237C25.759 19.6753 26.3614 20.2841 26.1928 21.0146C25.8072 22.5 23.1566 22.914 14 22.914H6.98795V20.8198V18.7256L15.253 18.8474C20.6988 18.8961 23.7831 19.0422 24.3855 19.237Z" fill="white"/>
<path d="M47.5906 0.633354C44.8677 1.33952 43.4701 1.94829 41.4219 3.33628C36.1689 6.86712 33.7592 12.4678 35.1327 17.9954C36.8436 24.7892 43.446 29.4645 51.9279 29.9028C57.6388 30.1707 62.8677 28.2713 66.6267 24.497C69.2532 21.8428 70.8195 18.3119 70.8436 14.9759C70.8436 13.247 70.0243 10.2032 69.1327 8.62037C67.5183 5.77134 64.193 2.92232 60.9641 1.58303C56.8677 -0.0971642 51.7111 -0.462425 47.5906 0.633354ZM55.3014 7.20803C60.1448 8.08465 63.8556 11.3476 63.8556 14.7324C63.8556 16.6074 63.3737 17.7519 62.0002 19.2616C59.8074 21.6723 56.6508 22.9142 52.7472 22.9142C49.205 22.9142 46.3135 21.8671 44.0725 19.7973C40.0966 16.1204 41.205 11.1041 46.5544 8.44991C48.2412 7.59764 50.94 6.91582 52.6508 6.86712C53.0605 6.86712 54.2412 7.01322 55.3014 7.20803Z" fill="white"/>
<path d="M74.2168 14.9999V29.9756H85.0602H95.9035V26.4447V22.9139H88.5541H81.2047V11.4691V0.0242863H77.7108H74.2168V14.9999Z" fill="white"/>
<path d="M90.8433 3.43338V6.84247L96.4577 6.89117L102.048 6.96422L102.12 18.4577L102.169 29.9756H105.542H108.916L108.964 18.4577L109.036 6.96422L114.53 6.89117L120 6.84247V3.43338V0.0242863H105.422H90.8433V3.43338Z" fill="white"/>
</svg>
