<svg width="40" height="40" viewBox="0 0 40 40" fill="none" xmlns="http://www.w3.org/2000/svg">
<path d="M23.1247 9.58337H10.6247C10.0497 9.58337 9.58301 10.05 9.58301 10.625C9.58301 11.2 10.0497 11.6667 10.6247 11.6667H23.1247C23.6997 11.6667 24.1663 11.2 24.1663 10.625C24.1663 10.05 23.6997 9.58337 23.1247 9.58337Z" fill="#0E0E11"/>
<path d="M18.958 13.75H10.6247C10.0497 13.75 9.58301 14.2167 9.58301 14.7917C9.58301 15.3667 10.0497 15.8333 10.6247 15.8333H18.958C19.533 15.8333 19.9997 15.3667 19.9997 14.7917C19.9997 14.2167 19.533 13.75 18.958 13.75Z" fill="#0E0E11"/>
<path d="M26.2497 3.33337H7.49967C5.20176 3.33337 3.33301 5.20212 3.33301 7.50004V28.3334C3.33301 28.7375 3.56634 29.1063 3.93301 29.2771C4.07259 29.3417 4.22467 29.375 4.37467 29.375C4.61426 29.375 4.85176 29.2917 5.04134 29.1334L11.0018 24.1667H26.2497C28.5476 24.1667 30.4163 22.298 30.4163 20V7.50004C30.4163 5.20212 28.5476 3.33337 26.2497 3.33337ZM28.333 20C28.333 21.148 27.3997 22.0834 26.2497 22.0834H10.6247C10.3809 22.0834 10.1455 22.1688 9.95801 22.325L5.41634 26.1105V7.50004C5.41634 6.35212 6.34967 5.41671 7.49967 5.41671H26.2497C27.3997 5.41671 28.333 6.35212 28.333 7.50004V20Z" fill="#0E0E11"/>
<path d="M32.5003 11.6666C31.9253 11.6666 31.4587 12.1333 31.4587 12.7083C31.4587 13.2833 31.9253 13.75 32.5003 13.75C33.6503 13.75 34.5837 14.6854 34.5837 15.8333V33.4562L31.067 30.6437C30.8837 30.4979 30.6524 30.4166 30.417 30.4166H15.8337C14.6837 30.4166 13.7503 29.4812 13.7503 28.3333V27.2916C13.7503 26.7166 13.2837 26.25 12.7087 26.25C12.1337 26.25 11.667 26.7166 11.667 27.2916V28.3333C11.667 30.6312 13.5357 32.5 15.8337 32.5H30.0503L34.9732 36.4395C35.1628 36.5895 35.3941 36.6666 35.6253 36.6666C35.7774 36.6666 35.9316 36.6333 36.0774 36.5645C36.4378 36.3895 36.667 36.025 36.667 35.625V15.8333C36.667 13.5354 34.7982 11.6666 32.5003 11.6666Z" fill="#0E0E11"/>
</svg>
